<svg width="32" height="32" viewBox="0 0 32 32" fill="none" xmlns="http://www.w3.org/2000/svg">
<g filter="url(#filter0_d_1_311)">
<path d="M12.0455 7.54446C12.819 7.64044 13.5864 7.88965 14.3038 8.30386C17.1736 9.96071 18.1568 13.6303 16.5 16.5C14.8431 13.6303 11.1736 12.647 8.30384 14.3039C7.58745 14.7175 6.98862 15.2565 6.51907 15.8772C6.74376 12.2206 8.93355 9.09535 12.0455 7.54446Z" fill="url(#paint0_linear_1_311)"/>
<path d="M6.51908 15.8772C6.98862 15.2565 7.58745 14.7175 8.30385 14.3038C11.1736 12.647 14.8431 13.6302 16.5 16.5C13.1863 16.5 10.5 19.1863 10.5 22.5C10.5 23.3277 10.6676 24.1162 10.9707 24.8336C8.27601 23.0421 6.5 19.9784 6.5 16.5C6.5 16.2908 6.50642 16.0832 6.51908 15.8772Z" fill="url(#paint1_linear_1_311)"/>
<path d="M10.9707 24.8336C10.6676 24.1163 10.5 23.3277 10.5 22.5C10.5 19.1863 13.1863 16.5 16.5 16.5C14.8431 19.3698 15.8264 23.0393 18.6962 24.6962C19.4136 25.1104 20.181 25.3596 20.9545 25.4555C19.6131 26.124 18.1005 26.5 16.5 26.5C14.4556 26.5 12.5545 25.8865 10.9707 24.8336Z" fill="url(#paint2_linear_1_311)"/>
<path d="M20.9545 25.4555C20.181 25.3596 19.4136 25.1104 18.6962 24.6962C15.8264 23.0393 14.8432 19.3698 16.5 16.5C18.1569 19.3698 21.8264 20.353 24.6962 18.6962C25.4126 18.2825 26.0114 17.7435 26.4809 17.1228C26.2562 20.7794 24.0665 23.9047 20.9545 25.4555Z" fill="url(#paint3_linear_1_311)"/>
<path d="M26.4809 17.1228C26.0114 17.7435 25.4125 18.2825 24.6962 18.6961C21.8264 20.353 18.1569 19.3697 16.5 16.5C19.8137 16.5 22.5 13.8137 22.5 10.5C22.5 9.67229 22.3324 8.88374 22.0293 8.16641C24.724 9.95791 26.5 13.0215 26.5 16.5C26.5 16.7092 26.4936 16.9168 26.4809 17.1228Z" fill="url(#paint4_linear_1_311)"/>
<path d="M22.0293 8.16642C22.3324 8.88375 22.5 9.6723 22.5 10.5C22.5 13.8137 19.8137 16.5 16.5 16.5C18.1569 13.6302 17.1736 9.9607 14.3038 8.30385C13.5864 7.88964 12.819 7.64043 12.0455 7.54445C13.3869 6.87599 14.8995 6.5 16.5 6.5C18.5444 6.5 20.4455 7.11349 22.0293 8.16642Z" fill="url(#paint5_linear_1_311)"/>
</g>
<defs>
<filter id="filter0_d_1_311" x="4.5" y="5.5" width="24" height="24" filterUnits="userSpaceOnUse" color-interpolation-filters="sRGB">
<feFlood flood-opacity="0" result="BackgroundImageFix"/>
<feColorMatrix in="SourceAlpha" type="matrix" values="0 0 0 0 0 0 0 0 0 0 0 0 0 0 0 0 0 0 127 0" result="hardAlpha"/>
<feOffset dy="1"/>
<feGaussianBlur stdDeviation="1"/>
<feColorMatrix type="matrix" values="0 0 0 0 0 0 0 0 0 0 0 0 0 0 0 0 0 0 0.4049 0"/>
<feBlend mode="normal" in2="BackgroundImageFix" result="effect1_dropShadow_1_311"/>
<feBlend mode="normal" in="SourceGraphic" in2="effect1_dropShadow_1_311" result="shape"/>
</filter>
<linearGradient id="paint0_linear_1_311" x1="545.808" y1="7.54446" x2="545.808" y2="903.099" gradientUnits="userSpaceOnUse">
<stop stop-color="#FFD305" style="stop-color:#FFD305;stop-color:color(display-p3 1.0000 0.8275 0.0196);stop-opacity:1;"/>
<stop offset="1" stop-color="#FDCF01" style="stop-color:#FDCF01;stop-color:color(display-p3 0.9922 0.8118 0.0039);stop-opacity:1;"/>
</linearGradient>
<linearGradient id="paint1_linear_1_311" x1="506.5" y1="13.499" x2="506.5" y2="1146.96" gradientUnits="userSpaceOnUse">
<stop stop-color="#52CF30" style="stop-color:#52CF30;stop-color:color(display-p3 0.3216 0.8118 0.1882);stop-opacity:1;"/>
<stop offset="1" stop-color="#3BBD1C" style="stop-color:#3BBD1C;stop-color:color(display-p3 0.2314 0.7412 0.1098);stop-opacity:1;"/>
</linearGradient>
<linearGradient id="paint2_linear_1_311" x1="533.223" y1="16.5" x2="533.223" y2="1016.5" gradientUnits="userSpaceOnUse">
<stop stop-color="#14ADF6" style="stop-color:#14ADF6;stop-color:color(display-p3 0.0784 0.6784 0.9647);stop-opacity:1;"/>
<stop offset="1" stop-color="#1191F4" style="stop-color:#1191F4;stop-color:color(display-p3 0.0667 0.5686 0.9569);stop-opacity:1;"/>
</linearGradient>
<linearGradient id="paint3_linear_1_311" x1="554.984" y1="16.5" x2="554.984" y2="912.055" gradientUnits="userSpaceOnUse">
<stop stop-color="#CA70E1" style="stop-color:#CA70E1;stop-color:color(display-p3 0.7922 0.4392 0.8824);stop-opacity:1;"/>
<stop offset="1" stop-color="#B452CB" style="stop-color:#B452CB;stop-color:color(display-p3 0.7059 0.3216 0.7961);stop-opacity:1;"/>
</linearGradient>
<linearGradient id="paint4_linear_1_311" x1="516.5" y1="8.16641" x2="516.5" y2="1141.62" gradientUnits="userSpaceOnUse">
<stop stop-color="#FF645D" style="stop-color:#FF645D;stop-color:color(display-p3 1.0000 0.3922 0.3647);stop-opacity:1;"/>
<stop offset="1" stop-color="#FF4332" style="stop-color:#FF4332;stop-color:color(display-p3 1.0000 0.2627 0.1961);stop-opacity:1;"/>
</linearGradient>
<linearGradient id="paint5_linear_1_311" x1="534.769" y1="6.5" x2="534.769" y2="1006.5" gradientUnits="userSpaceOnUse">
<stop stop-color="#FBB114" style="stop-color:#FBB114;stop-color:color(display-p3 0.9843 0.6941 0.0784);stop-opacity:1;"/>
<stop offset="1" stop-color="#FF9508" style="stop-color:#FF9508;stop-color:color(display-p3 1.0000 0.5843 0.0314);stop-opacity:1;"/>
</linearGradient>
</defs>
</svg>

